<svg width="260" height="260" viewBox="0 0 260 260" fill="none" xmlns="http://www.w3.org/2000/svg">
<rect width="260" height="260" fill="#FF3530"/>
<path d="M260 147L111 3.18647e-06L260 1.62125e-05L260 147Z" fill="#FEFFF9"/>
<path d="M250 118L138 10L250 10L250 118Z" fill="#FF3530"/>
<path d="M56.5854 93.5563L91.5306 58.6111L96.9753 64.0558L92.3225 73.3613L64.3565 101.327L56.5854 93.5563ZM80.6906 117.662L86.4818 70.6885L96.9753 64.0558L91.1841 111.029L80.6906 117.662ZM80.6906 117.662L85.5909 108.604L113.557 80.6375L121.328 88.4086L86.3828 123.354L80.6906 117.662ZM93.1284 130.099L128.074 95.1541L135.845 102.925L100.9 137.87L93.1284 130.099ZM99.0681 136.039L105.8 129.307L124.955 148.463L118.224 155.195L99.0681 136.039ZM113.67 121.437L120.154 114.953L137.577 132.376L131.093 138.86L113.67 121.437ZM127.331 107.776L134.013 101.094L152.921 120.002L146.239 126.684L127.331 107.776ZM132.293 169.263L156.002 123.082L163.723 130.804L145.063 165.898L142.044 162.878L176.939 144.02L183.027 150.108L164.169 185.004L161.199 182.034L196.243 163.324L203.915 170.996L157.734 194.705L151.646 188.617L170.455 153.672L173.326 156.543L138.381 175.352L132.293 169.263Z" fill="#FEFFF9"/>
</svg>
