<svg width="353" height="353" viewBox="0 0 353 353" fill="none" xmlns="http://www.w3.org/2000/svg">
<rect width="353" height="353" fill="#FF3530"/>
<path d="M353 199.581L150.704 4.19194e-05L353 5.96046e-05L353 199.581Z" fill="#FEFFF9"/>
<path d="M339.423 160.208L187.361 13.577L339.423 13.577L339.423 160.208Z" fill="#FF3530"/>
<path d="M91.9585 143.997L100.585 135.371L112.323 147.109C114.492 149.277 116.825 150.338 119.324 150.291C121.822 150.243 123.99 149.301 125.829 147.462C127.102 146.189 127.95 144.775 128.374 143.22C128.799 141.664 128.775 140.085 128.304 138.482C127.88 136.926 126.937 135.418 125.475 133.956L113.737 122.218L122.152 113.804L132.971 124.623C134.809 126.461 136.742 127.498 138.769 127.734C140.843 127.922 142.823 127.074 144.709 125.188C146.547 123.35 147.349 121.417 147.113 119.39C146.924 117.316 145.911 115.36 144.072 113.521L133.254 102.702L141.88 94.0756L154.82 107.016C158.026 110.221 160.147 113.521 161.184 116.915C162.268 120.356 162.41 123.656 161.608 126.815C160.807 129.973 159.204 132.754 156.8 135.159C153.736 138.223 150.153 139.825 146.052 139.967C141.951 140.108 137.567 138.647 132.9 135.583L136.93 132.118C140.325 137.115 141.927 141.97 141.739 146.684C141.597 151.446 139.735 155.617 136.153 159.2C133.419 161.934 130.26 163.726 126.677 164.574C123.189 165.423 119.536 165.211 115.717 163.938C111.946 162.712 108.293 160.332 104.757 156.796L91.9585 143.997ZM83.4732 135.512L133.395 85.5903L144.355 96.5505L94.4334 146.472L83.4732 135.512ZM128.772 180.811L178.694 130.889L186.472 138.668L179.825 151.961L139.874 191.913L128.772 180.811ZM163.208 215.247L171.481 148.143L186.472 138.668L178.199 205.772L163.208 215.247ZM163.208 215.247L170.209 202.307L210.16 162.356L221.262 173.457L171.34 223.379L163.208 215.247ZM210.039 220.924L218.241 212.722L228.777 223.257C230.993 225.473 233.255 226.604 235.565 226.652C237.922 226.746 240.067 225.827 242 223.894C243.791 222.102 244.687 220.028 244.687 217.671C244.687 215.314 243.579 213.028 241.364 210.812L230.757 200.206L239.384 191.579L251.263 203.458C254.563 206.758 256.826 210.294 258.051 214.065C259.324 217.789 259.56 221.466 258.758 225.096C257.957 228.726 256.118 231.978 253.243 234.854C250.32 237.777 247.044 239.639 243.414 240.44C239.831 241.194 236.154 240.912 232.383 239.592C228.612 238.272 225.006 235.891 221.565 232.45L210.039 220.924ZM180.977 233.015L230.898 183.094L242 194.195L192.078 244.117L180.977 233.015ZM208.129 260.168L214.069 223.116L227.009 230.541L221.282 273.321L208.129 260.168Z" fill="#FEFFF9"/>
</svg>
