<svg width="47" height="46" viewBox="0 0 47 46" fill="none" xmlns="http://www.w3.org/2000/svg">
<path d="M47 46L0 0L47 4.10887e-06L47 46Z" fill="#FEFFF9"/>
<path d="M44 37L8 3L44 3.00001L44 37Z" fill="#363636"/>
<path d="M24.0632 10.8765L24.8396 10.1001L25.896 11.1565C26.0912 11.3517 26.3012 11.4472 26.5261 11.4429C26.7509 11.4387 26.9461 11.3538 27.1115 11.1884C27.2261 11.0738 27.3025 10.9465 27.3406 10.8065C27.3788 10.6665 27.3767 10.5244 27.3343 10.3801C27.2961 10.2401 27.2112 10.1044 27.0797 9.97284L26.0233 8.91642L26.7806 8.15911L27.7543 9.1328C27.9198 9.29826 28.0937 9.3916 28.2762 9.41281C28.4628 9.42978 28.641 9.35341 28.8107 9.18371C28.9762 9.01825 29.0483 8.8443 29.0271 8.66186C29.0101 8.47519 28.9189 8.29912 28.7534 8.13365L27.7798 7.15997L28.5562 6.38356L29.7208 7.54817C30.0093 7.83667 30.2002 8.13365 30.2935 8.43912C30.3911 8.74884 30.4038 9.04582 30.3317 9.33008C30.2596 9.61434 30.1153 9.86465 29.899 10.081C29.6232 10.3568 29.3008 10.501 28.9316 10.5138C28.5625 10.5265 28.168 10.395 27.7479 10.1192L28.1107 9.80738C28.4162 10.2571 28.5604 10.6941 28.5434 11.1184C28.5307 11.5469 28.3631 11.9223 28.0407 12.2448C27.7946 12.4908 27.5104 12.6521 27.1879 12.7284C26.874 12.8048 26.5452 12.7857 26.2015 12.6712C25.8621 12.5609 25.5333 12.3466 25.2151 12.0284L24.0632 10.8765ZM23.2995 10.1128L27.7925 5.61989L28.7789 6.6063L24.2859 11.0993L23.2995 10.1128Z" fill="white"/>
<path d="M27.3764 14.1898L31.8694 9.6968L32.5694 10.3968L31.9712 11.5933L28.3756 15.1889L27.3764 14.1898ZM30.4757 17.289L31.2203 11.2496L32.5694 10.3968L31.8249 16.4362L30.4757 17.289ZM30.4757 17.289L31.1057 16.1244L34.7014 12.5288L35.7005 13.5279L31.2076 18.0209L30.4757 17.289Z" fill="white"/>
<path d="M34.6904 17.7999L35.4286 17.0617L36.3769 18.0099C36.5763 18.2093 36.7799 18.3112 36.9878 18.3154C37.1999 18.3239 37.393 18.2411 37.5669 18.0672C37.7282 17.906 37.8088 17.7193 37.8088 17.5072C37.8088 17.295 37.7091 17.0893 37.5097 16.8899L36.5551 15.9353L37.3315 15.1589L38.4006 16.228C38.6976 16.525 38.9012 16.8432 39.0116 17.1826C39.1261 17.5178 39.1473 17.8487 39.0752 18.1754C39.0031 18.5021 38.8376 18.7948 38.5788 19.0536C38.3158 19.3167 38.0209 19.4842 37.6942 19.5564C37.3718 19.6243 37.0409 19.5988 36.7014 19.48C36.362 19.3612 36.0375 19.147 35.7278 18.8372L34.6904 17.7999ZM32.0748 18.8882L36.5678 14.3952L37.5669 15.3943L33.074 19.8873L32.0748 18.8882ZM34.5186 21.3319L35.0532 17.9972L36.2178 18.6654L35.7023 22.5156L34.5186 21.3319Z" fill="white"/>
</svg>
